<svg width="1040" height="55" viewBox="0 0 1040 55" fill="#FFFFFF" stroke="#FFFFFF"  xmlns="http://www.w3.org/2000/svg">
<path d="M24.3307 16.3299C26.8873 17.4578 28.8264 17.0383 30.7696 15.9856C30.2353 13.8407 29.234 12.1231 26.6815 10.9992C24.1289 9.87526 20.2743 9.78028 17.8998 10.3145C19.1781 12.503 21.7742 15.202 24.3307 16.3299Z" />
<path d="M26.2819 30.6022C30.3815 26.6775 31.1004 22.709 30.6535 18.2402C26.209 17.5748 22.2114 18.1237 18.1118 22.0436C14.0122 25.9634 10.8258 33.1232 10 38C15.0954 37.3103 22.1871 34.5221 26.2819 30.6022Z" />
<path d="M472.125 30.8902C476.244 28.0865 477.399 24.547 477.571 20.3414C473.745 18.8381 470.16 18.5463 466.04 21.35C461.92 24.1537 458.199 30.1353 456.83 34.4741C461.404 34.8483 468.005 33.6938 472.125 30.8902Z" />
<path d="M481.55 19.73H40.5413" stroke-width="2" stroke-miterlimit="10"/>
<path d="M504.819 39.6642C507.846 38.7732 510.735 37.4682 513.405 35.7861C513.066 33.9737 512.943 32.1276 513.037 30.2862C513.153 27.3934 514.035 24.5833 515.594 22.1437C517.059 20.0033 518.943 18.1825 521.132 16.7917C522.086 16.2622 523.436 15.3845 523.436 15.3845C522.357 14.6726 521.206 14.0763 520.002 13.6053C516.93 12.8468 507.871 13.3238 502.014 18.4946C496.156 23.6654 492.23 33.8733 491.438 41.6533C495.975 41.6999 500.491 41.0286 504.819 39.6642Z" />
<path d="M544.095 39.6642C541.068 38.7732 538.179 37.4682 535.509 35.7861C535.848 33.9737 535.971 32.1276 535.877 30.2862C535.763 27.3939 534.882 24.5838 533.325 22.1437C531.86 20.0033 529.976 18.1825 527.787 16.7917C526.833 16.2622 525.483 15.3845 525.483 15.3845C526.562 14.6726 527.713 14.0763 528.917 13.6053C531.989 12.8468 541.047 13.3238 546.905 18.4946C552.763 23.6654 556.688 33.8733 557.48 41.6533C552.942 41.7004 548.424 41.0291 544.095 39.6642Z" />
<path d="M514.864 37.2218C515.444 39.5191 516.242 41.7554 517.249 43.8999C519.1 47.9482 521.556 51.6911 524.533 54.9999C528.569 50.7068 532.642 43.6519 534.217 37.0406C534.647 35.3078 534.874 33.531 534.894 31.7458C534.894 25.435 532.185 21.285 527.863 17.9125C526.794 17.0916 525.679 16.3319 524.524 15.6372C523.452 16.2844 522.413 16.9865 521.414 17.7408C519.913 18.8567 518.567 20.1672 517.412 21.638C515.351 24.3188 514.163 27.5529 514.163 31.7315C514.179 33.5829 514.415 35.4258 514.864 37.2218Z" />
<path d="M515.499 8.11486C509.188 6.82694 499.371 5.93016 492.235 5.72982C492.526 7.80481 496.147 12.3602 502.09 13.9439C508.034 15.5276 515.966 9.95612 522.544 13.8867C523.124 14.2771 523.749 14.5974 524.405 14.8407C524.979 14.5934 525.531 14.2982 526.055 13.9582C532.39 10.7766 541.014 15.5085 546.958 13.92C552.901 12.3316 556.273 7.78095 556.569 5.70597C549.414 5.90631 539.616 6.79832 533.306 8.09101C533.654 8.39538 533.914 8.78738 534.059 9.22629C532.733 7.70464 528.679 6.05419 524.462 5C520.202 6.04942 515.876 7.82866 514.721 9.4171C514.827 8.90826 515.101 8.44972 515.499 8.11486Z" />
<path d="M575.989 30.889C571.869 28.0856 570.715 24.5464 570.543 20.3413C574.368 18.8381 577.953 18.5464 582.073 21.3498C586.192 24.1532 589.912 30.1342 591.282 34.4725C586.708 34.8531 580.102 33.686 575.989 30.889Z" />
<path d="M999.687 20.2412L566.588 20.2412" stroke-width="2" stroke-miterlimit="10"/>
<path d="M1016.13 16.3299C1013.57 17.4578 1011.63 17.0383 1009.69 15.9856C1010.22 13.8407 1011.22 12.1231 1013.77 10.9992C1016.33 9.87526 1020.18 9.78028 1022.56 10.3145C1021.28 12.503 1018.68 15.202 1016.13 16.3299Z" />
<path d="M1014.17 30.6022C1010.07 26.6775 1009.36 22.709 1009.8 18.2402C1014.25 17.5748 1018.24 18.1237 1022.34 22.0436C1026.44 25.9634 1029.63 33.1232 1030.46 38C1025.36 37.3103 1018.27 34.5221 1014.17 30.6022Z" />
</svg>
