<svg width="41" height="62" viewBox="0 0 41 62" fill="#FFFFFF" xmlns="http://www.w3.org/2000/svg">
<path d="M38.3165 51.6841C38.8189 52.6996 39.2341 53.7652 39.5564 54.866C40.1754 56.9292 40.5126 59.0801 40.5564 61.2447C37.5773 60.899 34.7017 59.7567 32.1717 57.9141C31.5205 57.4308 30.9201 56.8652 30.3825 56.2288C28.5025 53.9564 28.1287 51.5786 28.4943 48.9575C28.5868 48.3139 28.7118 47.6773 28.8686 47.051C29.3987 46.9338 29.9343 46.8476 30.4734 46.7926C31.2775 46.7043 32.0905 46.7367 32.8912 46.8887C34.4468 47.2098 35.8675 48.118 36.9162 49.4618C37.4586 50.1395 37.9286 50.8855 38.3165 51.6841Z" />
<path d="M15.4321 17.6244C17.488 16.1167 19.6548 14.8172 21.9064 13.7415C26.052 11.7158 30.4232 10.3816 34.8808 9.78153C34.1532 17.6581 31.8528 25.2853 28.1544 32.0837C27.1601 33.8874 26 35.5695 24.6941 37.101C22.8166 39.3981 20.4996 41.1771 17.9292 42.2951C15.3588 43.4131 12.6066 43.8389 9.89389 43.5383C8.58826 43.4423 7.29049 43.26 6.00717 42.9924C5.76933 41.6485 5.5951 40.2895 5.48522 38.9213C5.30582 36.8446 5.37141 34.7436 5.68025 32.6735C6.37093 28.526 8.20587 24.7046 10.9189 21.7634C12.2895 20.2052 13.8028 18.8173 15.4321 17.6244Z" />
</svg>
