<svg width="303" height="311" viewBox="0 0 303 311" fill="none" xmlns="http://www.w3.org/2000/svg">
<path d="M177.35 265.9L177.351 265.9L177.359 265.897C182.744 264.216 188.354 263.37 193.993 263.386C193.432 268.234 191.943 273.784 189.696 278.951C187.363 284.316 184.23 289.23 180.509 292.515C176.801 295.789 172.062 297.596 167.736 298.457C163.423 299.316 159.588 299.222 157.672 298.753C156.395 298.251 155.165 297.639 153.996 296.923C154.109 296.852 154.233 296.775 154.365 296.694C154.961 296.326 155.705 295.875 156.306 295.535L156.317 295.529L156.328 295.522C159.23 293.674 161.726 291.255 163.663 288.412L163.663 288.412L163.671 288.4C165.748 285.158 166.925 281.42 167.079 277.573C167.196 275.261 167.053 272.944 166.652 270.665C169.989 268.606 173.587 267.004 177.35 265.9Z" fill="#e9d7d2" stroke="#e9d7d2"/>
<path d="M126.13 265.897L126.13 265.897L126.139 265.9C129.903 267.004 133.5 268.606 136.837 270.665C136.437 272.944 136.293 275.261 136.41 277.573C136.565 281.42 137.741 285.158 139.819 288.4L139.823 288.406L139.827 288.412C141.765 291.244 144.256 293.652 147.152 295.492L147.163 295.499L147.174 295.505C147.775 295.845 148.519 296.296 149.115 296.664C149.246 296.745 149.37 296.822 149.484 296.893C148.315 297.609 147.085 298.221 145.808 298.723C143.892 299.192 140.057 299.286 135.744 298.427C131.418 297.566 126.679 295.759 122.971 292.485C119.25 289.2 116.116 284.286 113.783 278.921C111.537 273.755 110.048 268.205 109.487 263.356C115.131 263.349 120.744 264.205 126.13 265.897Z" fill="#e9d7d2" stroke="#e9d7d2"/>
<path d="M160.655 260.118L160.657 260.121C161.942 262.877 162.959 265.75 163.694 268.7C164.257 271.002 164.544 273.362 164.55 275.731H164.55L164.55 275.744C164.682 280.345 163.233 284.852 160.444 288.514C158.974 290.384 157.261 292.05 155.352 293.469L155.352 293.469L155.347 293.472C154.156 294.378 152.923 295.226 151.651 296.013C150.264 295.15 148.924 294.213 147.638 293.206L147.637 293.206C142.134 288.921 138.721 283.677 138.72 275.683C138.746 273.407 139.036 271.142 139.584 268.933C141.779 260.535 145.917 252.773 151.66 246.271C155.321 250.419 158.352 255.085 160.655 260.118Z" fill="#e9d7d2" stroke="#e9d7d2"/>
<path d="M225.104 283.198L225.103 283.199C224.174 284.717 223.067 286.119 221.807 287.376L221.807 287.376L221.8 287.383C219.403 289.864 216.227 291.449 212.802 291.873C211.023 292.065 209.226 292.019 207.459 291.736L207.455 291.736C206.356 291.569 205.266 291.351 204.188 291.081C203.923 289.909 203.719 288.725 203.577 287.532C202.991 282.325 204.011 277.75 208.298 273.549C209.535 272.366 210.905 271.33 212.381 270.463C218.023 267.24 224.338 265.379 230.822 265.026C230.51 269.137 229.601 273.18 228.123 277.031L228.122 277.034C227.316 279.181 226.305 281.245 225.104 283.198Z" fill="#e9d7d2" stroke="#e9d7d2"/>
<path d="M253.989 284.094L253.988 284.094C252.413 284.708 250.775 285.148 249.104 285.406L249.104 285.406L249.092 285.408C245.91 285.979 242.629 285.522 239.724 284.103C238.286 283.365 236.951 282.439 235.757 281.35L235.754 281.348C235.036 280.702 234.349 280.023 233.695 279.312C234.15 278.366 234.654 277.445 235.205 276.553L235.209 276.546L235.214 276.539C236.398 274.474 238.051 272.717 240.039 271.407C242.026 270.097 244.293 269.271 246.658 268.997L246.658 268.997L246.668 268.995C248.289 268.771 249.929 268.722 251.56 268.848C257.537 269.348 263.328 271.158 268.522 274.148C265.944 276.902 262.997 279.287 259.762 281.232L259.762 281.232L259.759 281.234C257.924 282.357 255.993 283.315 253.989 284.094ZM249.18 285.9C250.887 285.636 252.56 285.187 254.17 284.56L239.5 284.55C242.501 286.017 245.892 286.49 249.18 285.9Z" fill="#e9d7d2" stroke="#e9d7d2"/>
<path d="M82.6591 283.26L82.6589 283.26C81.6496 281.202 80.8404 279.052 80.2427 276.84L80.2427 276.84L80.2417 276.836C79.1352 272.858 78.6145 268.741 78.6951 264.615C85.1141 265.586 91.2211 268.041 96.5293 271.787C97.9158 272.79 99.1811 273.95 100.3 275.245C104.179 279.833 104.745 284.485 103.651 289.615C103.396 290.786 103.079 291.944 102.703 293.082C101.605 293.247 100.501 293.36 99.3928 293.421L99.3893 293.421C97.6055 293.531 95.815 293.403 94.0648 293.041C90.694 292.292 87.6818 290.41 85.5312 287.709L85.5312 287.709L85.5253 287.701C84.3987 286.339 83.4367 284.848 82.6591 283.26Z" fill="#e9d7d2" stroke="#e9d7d2"/>
<path d="M53.0322 284.905L53.0311 284.904C51.0263 284.125 49.0953 283.167 47.2612 282.044L47.2576 282.042C44.0232 280.097 41.0755 277.712 38.4983 274.958C43.6923 271.968 49.4831 270.158 55.4601 269.658C57.0911 269.532 58.731 269.581 60.3515 269.805L60.3515 269.806L60.3605 269.807C62.7165 270.088 64.9738 270.917 66.9524 272.227C68.931 273.536 70.5761 275.29 71.7562 277.349L71.7603 277.356L71.7646 277.363C72.3162 278.255 72.8203 279.176 73.2747 280.122C72.6212 280.833 71.9341 281.512 71.2157 282.158L71.2132 282.161C70.0183 283.249 68.6843 284.175 67.2461 284.913C64.3413 286.332 61.0602 286.789 57.8783 286.218L57.8783 286.218L57.868 286.216C56.2134 285.955 54.592 285.515 53.0322 284.905Z" fill="#e9d7d2" stroke="#e9d7d2"/>
<path d="M138.797 304.972C138.916 305.32 139.083 305.647 139.293 305.945C129.858 307.588 120.318 308.56 110.745 308.852C110.901 308.363 111.17 307.777 111.562 307.128C112.124 306.199 112.921 305.171 113.946 304.157C115.997 302.129 118.941 300.179 122.696 299.204C124.537 298.726 126.611 298.727 128.848 298.953C130.514 299.121 132.238 299.41 134.005 299.705C134.615 299.807 135.23 299.91 135.85 300.009C140.624 300.772 145.628 301.308 149.894 299.167L149.918 299.155L149.941 299.14C150.541 298.753 151.169 298.412 151.821 298.121C152.565 298.42 153.275 298.799 153.937 299.253L153.95 299.261L153.963 299.269C158.399 301.925 163.274 301.352 167.881 300.439C168.613 300.294 169.335 300.141 170.05 299.99C171.609 299.66 173.127 299.339 174.612 299.128C176.766 298.823 178.778 298.766 180.611 299.253C184.376 300.254 187.404 302.198 189.535 304.218C190.6 305.228 191.436 306.252 192.025 307.178C192.438 307.827 192.72 308.412 192.881 308.901C183.302 308.609 173.756 307.637 164.314 305.991C164.581 305.586 164.762 305.127 164.843 304.642L163.947 304.265C163.622 304.707 163.049 305.198 162.247 305.712C161.452 306.222 160.464 306.734 159.34 307.23C157.127 308.207 154.423 309.104 151.721 309.775C149.057 309.099 146.447 308.249 144.293 307.327C142.083 306.381 140.428 305.39 139.649 304.484L138.797 304.972Z" fill="#e9d7d2" stroke="#e9d7d2"/>
<path d="M151.75 301.71C234.593 301.71 301.75 234.553 301.75 151.71C301.75 68.8672 234.593 1.70996 151.75 1.70996C68.9073 1.70996 1.75 68.8672 1.75 151.71C1.75 234.553 68.9073 301.71 151.75 301.71Z" stroke="#e9d7d2" stroke-width="2" stroke-miterlimit="10"/>
</svg>
