<svg width="39" height="35" viewBox="0 0 39 35" fill="#8e5c4e" xmlns="http://www.w3.org/2000/svg">
<path d="M34.3077 33.0555H5.19222C3.09544 33.0555 2.20977 32.1596 3.89504 30.91L9.54811 26.7138C9.92325 26.4353 10.3781 26.2849 10.8453 26.2849H28.438C28.8916 26.2852 29.3337 26.4272 29.7027 26.6911L35.5732 30.8873C37.2951 32.1177 36.4245 33.0555 34.3077 33.0555Z" />
<path d="M19.2128 1.94458C15.1982 1.94458 11.9439 5.19885 11.9439 9.21345C11.9439 13.2281 16.8808 23.8735 19.2128 23.8735C21.5448 23.8735 26.4817 13.2273 26.4817 9.21383C26.4817 5.20036 23.2274 1.94458 19.2128 1.94458ZM19.2128 11.8048C18.6761 11.8048 18.1514 11.6456 17.7052 11.3475C17.2589 11.0493 16.9111 10.6255 16.7057 10.1296C16.5003 9.63375 16.4466 9.08813 16.5513 8.56173C16.656 8.03533 16.9144 7.5518 17.2939 7.17229C17.6735 6.79278 18.157 6.53433 18.6834 6.42963C19.2098 6.32492 19.7554 6.37866 20.2513 6.58405C20.7471 6.78944 21.1709 7.13725 21.4691 7.58351C21.7673 8.02977 21.9264 8.55443 21.9264 9.09114C21.9264 9.81084 21.6405 10.5011 21.1316 11.01C20.6227 11.5189 19.9325 11.8048 19.2128 11.8048Z" />
</svg>
